<svg width="225" height="100" viewBox="0 0 225 100" fill="none" xmlns="http://www.w3.org/2000/svg">
<rect width="225" height="100" fill="none"/>
<path d="M59.0586 73.2988C59.5469 71.3132 60.2956 69.2135 61.3047 67C62.3464 64.7539 63.6973 62.4915 65.3574 60.2129C67.0176 57.9342 69.0033 55.7044 71.3145 53.5234C73.6582 51.3424 76.36 49.3079 79.4199 47.4199C79.9082 47.127 80.6569 46.8177 81.666 46.4922C82.6751 46.1341 83.7168 45.9225 84.791 45.8574C86.0605 44.4902 87.7695 43.8066 89.918 43.8066C92.457 43.8066 94.5892 44.4577 96.3145 45.7598C98.0723 47.0293 99.5208 48.7708 100.66 50.9844C101.018 51.7005 101.344 52.4004 101.637 53.084C101.962 53.7676 102.223 54.5 102.418 55.2812C102.646 56.0299 102.825 56.8438 102.955 57.7227C103.085 58.6016 103.15 59.5944 103.15 60.7012C103.15 63.2728 102.743 65.8932 101.93 68.5625C101.116 71.2318 99.9603 73.8359 98.4629 76.375C96.9655 78.9141 95.1426 81.3555 92.9941 83.6992C90.8783 86.0104 88.5182 88.0938 85.9141 89.9492C84.1562 91.2188 82.2031 92.1953 80.0547 92.8789C77.9388 93.5951 75.5625 93.9531 72.9258 93.9531C70.4193 93.9531 68.2383 93.6113 66.3828 92.9277C64.5599 92.2767 63.0299 91.3327 61.793 90.0957C60.5885 88.8587 59.6771 87.3776 59.0586 85.6523C58.4727 83.9271 58.1797 82.0065 58.1797 79.8906C58.1797 77.8398 58.4727 75.6426 59.0586 73.2988ZM67.1641 73.9336C66.9688 74.6823 66.8223 75.3984 66.7246 76.082C66.6595 76.7331 66.627 77.3678 66.627 77.9863C66.627 79.0605 66.7572 80.0697 67.0176 81.0137C67.3105 81.9251 67.7663 82.7227 68.3848 83.4062C69.0033 84.0573 69.7682 84.5781 70.6797 84.9688C71.6237 85.3268 72.763 85.5059 74.0977 85.5059C76.5716 85.5059 78.8665 84.8874 80.9824 83.6504C83.1309 82.3809 85.0352 80.8021 86.6953 78.9141C88.3555 77.026 89.7389 75.0078 90.8457 72.8594C91.985 70.6784 92.7826 68.6764 93.2383 66.8535C93.5312 65.7142 93.7754 64.64 93.9707 63.6309C94.1986 62.6217 94.3125 61.694 94.3125 60.8477C94.3125 60.0013 94.1497 59.2201 93.8242 58.5039C93.5312 57.7552 93.1406 56.9251 92.6523 56.0137C92.3594 55.4603 92.0664 54.8906 91.7734 54.3047C91.4805 53.6862 91.2201 53.084 90.9922 52.498C90.7318 52.9538 90.4551 53.3607 90.1621 53.7188C89.8691 54.0443 89.4297 54.3535 88.8438 54.6465C88.2578 54.9069 87.4603 55.151 86.4512 55.3789C85.4421 55.6068 84.1237 55.8021 82.4961 55.9648C81.4219 56.3229 80.3314 56.8763 79.2246 57.625C78.1178 58.3737 77.0273 59.2526 75.9531 60.2617C74.9115 61.2708 73.9023 62.3613 72.9258 63.5332C71.9818 64.7051 71.1191 65.9095 70.3379 67.1465C69.5892 68.3509 68.9219 69.5391 68.3359 70.7109C67.7826 71.8828 67.3919 72.957 67.1641 73.9336ZM111.549 88.7773C112.525 84.9688 113.469 81.4206 114.381 78.1328C115.292 74.8451 116.171 71.7038 117.018 68.709C117.896 65.6816 118.743 62.752 119.557 59.9199C120.37 57.0879 121.152 54.207 121.9 51.2773C122.193 50.138 122.356 49.0475 122.389 48.0059C122.454 46.9316 122.617 45.8249 122.877 44.6855C123.007 44.2949 123.235 43.9531 123.561 43.6602C123.919 43.3346 124.309 43.0579 124.732 42.8301C125.156 42.6022 125.595 42.4232 126.051 42.293C126.539 42.1628 126.995 42.0977 127.418 42.0977C128.329 42.0977 129.078 42.2116 129.664 42.4395C130.283 42.6348 130.771 42.9115 131.129 43.2695C131.52 43.6276 131.78 44.0671 131.91 44.5879C132.073 45.0762 132.154 45.6296 132.154 46.248C132.154 47.3548 131.975 48.4779 131.617 49.6172C131.259 50.724 130.82 51.9447 130.299 53.2793C131.829 52.0749 133.391 50.9355 134.986 49.8613C136.614 48.7871 138.274 47.8431 139.967 47.0293C141.692 46.2155 143.45 45.5645 145.24 45.0762C147.031 44.5879 148.886 44.3438 150.807 44.3438C151.686 44.3438 152.564 44.4902 153.443 44.7832C154.322 45.0436 155.104 45.4668 155.787 46.0527C156.503 46.6387 157.089 47.4036 157.545 48.3477C158.033 49.2917 158.31 50.4473 158.375 51.8145C159.775 50.8704 161.223 49.9264 162.721 48.9824C164.218 48.0059 165.732 47.1432 167.262 46.3945C168.824 45.6133 170.37 44.9948 171.9 44.5391C173.463 44.0508 174.977 43.8066 176.441 43.8066C178.622 43.8066 180.413 44.0996 181.812 44.6855C183.245 45.2389 184.368 46.0039 185.182 46.9805C186.028 47.9245 186.614 49.0312 186.939 50.3008C187.298 51.5703 187.477 52.9212 187.477 54.3535C187.477 55.916 187.33 57.5273 187.037 59.1875C186.744 60.8477 186.419 62.4264 186.061 63.9238C185.117 67.6999 184.059 71.2806 182.887 74.666C181.715 78.0189 180.445 81.4206 179.078 84.8711C178.753 85.6849 178.411 86.5475 178.053 87.459C177.695 88.3704 177.271 89.2168 176.783 89.998C176.327 90.7467 175.774 91.3815 175.123 91.9023C174.505 92.3906 173.772 92.6348 172.926 92.6348C171.005 92.6348 169.687 92.3092 168.971 91.6582C168.255 91.0072 167.896 90.0794 167.896 88.875C167.896 88.5495 167.913 88.1751 167.945 87.752C167.978 87.3288 168.059 86.9219 168.189 86.5312C168.32 86.043 168.613 85.3431 169.068 84.4316C169.524 83.4876 170.012 82.4785 170.533 81.4043C171.087 80.3301 171.624 79.2559 172.145 78.1816C172.665 77.0749 173.056 76.1146 173.316 75.3008C173.74 73.901 174.228 72.2897 174.781 70.4668C175.367 68.6113 175.921 66.7559 176.441 64.9004C176.962 63.0124 177.385 61.2383 177.711 59.5781C178.069 57.8854 178.248 56.5182 178.248 55.4766C178.248 54.9883 178.199 54.5 178.102 54.0117C178.004 53.5234 177.825 53.1003 177.564 52.7422C177.337 52.3841 176.995 52.0911 176.539 51.8633C176.116 51.6354 175.562 51.5215 174.879 51.5215C173.902 51.5215 172.73 51.7982 171.363 52.3516C170.029 52.9049 168.629 53.6374 167.164 54.5488C165.732 55.4277 164.332 56.4368 162.965 57.5762C161.598 58.6829 160.426 59.7897 159.449 60.8965C158.766 61.6777 158.115 62.3125 157.496 62.8008C156.878 63.2891 156.259 63.6634 155.641 63.9238C155.576 64.054 155.413 64.4935 155.152 65.2422C154.892 65.9583 154.583 66.8372 154.225 67.8789C153.867 68.888 153.492 69.9948 153.102 71.1992C152.711 72.3711 152.337 73.4779 151.979 74.5195C151.653 75.5286 151.376 76.3913 151.148 77.1074C150.921 77.791 150.807 78.1654 150.807 78.2305C150.579 79.1419 150.383 80.0859 150.221 81.0625C150.058 82.0065 149.911 82.918 149.781 83.7969C149.651 84.6758 149.521 85.6198 149.391 86.6289C149.293 87.6055 149.065 88.5332 148.707 89.4121C148.382 90.2585 147.861 90.9583 147.145 91.5117C146.461 92.0651 145.484 92.3418 144.215 92.3418C143.564 92.3418 142.962 92.179 142.408 91.8535C141.887 91.528 141.432 91.1211 141.041 90.6328C140.65 90.112 140.341 89.5423 140.113 88.9238C139.885 88.2728 139.755 87.6217 139.723 86.9707C140.471 84.041 141.204 81.4043 141.92 79.0605C142.636 76.7168 143.352 74.4707 144.068 72.3223C144.785 70.1738 145.468 68.0254 146.119 65.877C146.803 63.696 147.47 61.3034 148.121 58.6992C148.284 58.0807 148.414 57.4785 148.512 56.8926C148.609 56.2741 148.658 55.737 148.658 55.2812C148.658 54.5 148.495 53.8652 148.17 53.377C147.844 52.8561 147.275 52.5957 146.461 52.5957C145.126 52.5957 143.792 52.8724 142.457 53.4258C141.155 53.9466 139.739 54.7767 138.209 55.916C136.679 57.0553 134.97 58.5039 133.082 60.2617C131.227 62.0195 129.078 64.1191 126.637 66.5605C126.376 67.0488 126.035 67.9603 125.611 69.2949C125.188 70.6296 124.749 72.0456 124.293 73.543C123.87 75.0404 123.479 76.4401 123.121 77.7422C122.763 79.0117 122.535 79.8581 122.438 80.2812C122.079 81.6484 121.835 82.804 121.705 83.748C121.575 84.6595 121.461 85.4896 121.363 86.2383C121.298 86.6289 121.201 87.2799 121.07 88.1914C120.94 89.0703 120.696 89.9655 120.338 90.877C120.012 91.7884 119.54 92.5859 118.922 93.2695C118.303 93.9857 117.49 94.3438 116.48 94.3438C114.983 94.3438 113.746 93.9368 112.77 93.123C111.826 92.3092 111.354 91.2839 111.354 90.0469C111.354 89.819 111.37 89.6074 111.402 89.4121C111.435 89.2168 111.484 89.0052 111.549 88.7773ZM197.34 83.0645C197.828 81.1764 198.414 78.9792 199.098 76.4727C199.781 73.9661 200.497 71.3132 201.246 68.5137C202.027 65.7142 202.809 62.8496 203.59 59.9199C204.371 56.9902 205.104 54.1419 205.787 51.375C205.82 51.2448 205.934 51.0332 206.129 50.7402C206.324 50.4147 206.601 50.1055 206.959 49.8125C207.317 49.487 207.773 49.2103 208.326 48.9824C208.88 48.7546 209.531 48.6406 210.279 48.6406C210.833 48.6406 211.37 48.7057 211.891 48.8359C212.411 48.9336 212.867 49.0964 213.258 49.3242C213.681 49.5521 214.007 49.8613 214.234 50.252C214.495 50.61 214.625 51.0332 214.625 51.5215C214.625 51.6191 214.625 51.7331 214.625 51.8633C214.625 51.9609 214.609 52.0586 214.576 52.1562L213.209 57.332C211.679 63.1263 210.117 68.9368 208.521 74.7637C206.959 80.5905 205.429 86.4336 203.932 92.293C203.867 92.4883 203.769 92.7324 203.639 93.0254C203.508 93.3184 203.329 93.6113 203.102 93.9043C202.874 94.1973 202.597 94.4414 202.271 94.6367C201.946 94.832 201.555 94.9297 201.1 94.9297C200.253 94.9297 199.505 94.7507 198.854 94.3926C198.202 94.0671 197.649 93.6439 197.193 93.123C196.738 92.6022 196.396 92.0326 196.168 91.4141C195.94 90.7956 195.826 90.2096 195.826 89.6562C195.826 89.4935 195.826 89.347 195.826 89.2168C195.826 89.0866 195.859 88.9401 195.924 88.7773L197.34 83.0645ZM210.084 32.5273C210.247 31.8438 210.54 31.0137 210.963 30.0371C211.386 29.0605 212.135 28.1816 213.209 27.4004C213.73 27.1074 214.365 26.847 215.113 26.6191C215.862 26.3587 216.399 26.2285 216.725 26.2285C217.05 26.2285 217.376 26.3424 217.701 26.5703C218.059 26.7982 218.368 27.0423 218.629 27.3027C218.954 27.6283 219.264 27.9863 219.557 28.377C220.37 28.4421 220.891 28.735 221.119 29.2559C221.38 29.7767 221.51 30.3952 221.51 31.1113C221.51 31.6322 221.461 32.1042 221.363 32.5273C221.266 32.9505 221.184 33.2923 221.119 33.5527C220.924 34.2363 220.549 34.8711 219.996 35.457C219.443 36.0104 218.808 36.4987 218.092 36.9219C217.376 37.3125 216.627 37.6217 215.846 37.8496C215.064 38.0775 214.381 38.1914 213.795 38.1914C213.046 38.1914 212.46 38.0612 212.037 37.8008C211.646 37.5404 211.142 36.987 210.523 36.1406C210.165 35.6523 209.954 35.278 209.889 35.0176C209.856 34.7246 209.84 34.4805 209.84 34.2852C209.84 33.9271 209.856 33.6178 209.889 33.3574C209.954 33.0645 210.019 32.7878 210.084 32.5273Z" fill="#C7C7C7"/>
<path d="M28.5957 32.4082C26.7402 41.1647 25.8125 46.959 25.8125 49.791C25.8125 50.7025 25.2266 51.4512 24.0547 52.0371C22.9154 52.623 21.7598 52.916 20.5879 52.916C19.2858 52.916 18.2279 52.5905 17.4141 51.9395C16.6003 51.2884 16.1934 50.4746 16.1934 49.498C16.1934 46.015 17.1211 40.416 18.9766 32.7012C14.3867 32.7988 10.4154 33.0267 7.0625 33.3848C5.10938 33.5801 3.79102 33.6777 3.10742 33.6777C1.25195 33.6777 0.324219 32.0501 0.324219 28.7949C0.324219 27.5254 1.2194 26.5163 3.00977 25.7676C4.83268 25.0189 10.9036 24.5632 21.2227 24.4004C24.4779 13.3652 26.5449 7.19661 27.4238 5.89453C28.3027 4.5599 29.5885 3.89258 31.2812 3.89258C33.9505 3.89258 35.2852 4.52734 35.2852 5.79688C35.2852 6.48047 35.041 7.52214 34.5527 8.92188C34.0645 10.3216 32.681 15.3835 30.4023 24.1074C36.5547 23.9121 41.6165 23.8145 45.5879 23.8145C48.127 23.8145 49.3965 25.084 49.3965 27.623C49.3965 30.6178 47.5247 32.1152 43.7812 32.1152C39.5495 32.1152 34.4876 32.2129 28.5957 32.4082Z" fill="#C7C7C7"/>
</svg>
